<?xml version="1.0" standalone="no"?><!DOCTYPE svg PUBLIC "-//W3C//DTD SVG 1.1//EN" "http://www.w3.org/Graphics/SVG/1.1/DTD/svg11.dtd"><svg t="1622536428949" class="icon" viewBox="0 0 1024 1024" version="1.1" xmlns="http://www.w3.org/2000/svg" p-id="6163" xmlns:xlink="http://www.w3.org/1999/xlink" width="200" height="200"><defs><style type="text/css"></style></defs><path d="M512 935.68c-233.728 0-423.68-189.952-423.68-423.68S278.272 88.32 512 88.32 935.68 278.272 935.68 512 745.728 935.68 512 935.68z m0-791.04c-202.496 0-367.36 164.864-367.36 367.36S309.504 879.36 512 879.36 879.36 714.496 879.36 512 714.496 144.64 512 144.64z" p-id="6164"></path><path d="M670.72 730.88c-8.192 0-16.128-3.328-21.76-10.24l-317.44-381.44c-9.984-12.032-8.448-29.696 3.584-39.68 12.032-9.984 29.696-8.448 39.68 3.584l317.44 381.44c9.984 12.032 8.448 29.696-3.584 39.68-5.12 4.608-11.52 6.656-17.92 6.656z" p-id="6165"></path><path d="M353.28 730.88c-6.4 0-12.8-2.048-17.92-6.4-12.032-9.984-13.568-27.648-3.584-39.68l317.44-381.44c9.984-12.032 27.648-13.568 39.68-3.584 12.032 9.984 13.568 27.648 3.584 39.68l-317.44 381.44c-5.632 6.656-13.824 9.984-21.76 9.984z" p-id="6166"></path></svg>